<?xml version="1.0" standalone="no"?><!DOCTYPE svg PUBLIC "-//W3C//DTD SVG 1.1//EN" "http://www.w3.org/Graphics/SVG/1.1/DTD/svg11.dtd"><svg t="1780016954497" class="icon" viewBox="0 0 1025 1024" version="1.1" xmlns="http://www.w3.org/2000/svg" p-id="14192" xmlns:xlink="http://www.w3.org/1999/xlink" width="256.25" height="256"><path d="M0 522.154667c1.8944 95.214933 29.986133 183.825067 77.073067 259.515733-0.1024-4.608-0.597333-9.096533-0.597333-13.755733 0-59.5456 6.792533-117.469867 18.926933-173.397333C62.1568 572.2112 30.3104 548.078933 0 522.154667zM678.229333 506.845867c23.6032-37.973333 43.605333-78.336 60.3648-120.337067-13.568-13.858133-21.9648-32.750933-21.9648-53.674667 0-36.9152 26.094933-67.703467 60.8256-75.042133 10.325333-50.158933 15.9744-102.0416 15.9744-155.2896 0-6.075733-0.426667-12.0832-0.6144-18.158933-33.621333-22.084267-70.075733-40.004267-108.5952-53.794133-67.3792 19.2512-131.242667 46.830933-189.696 82.705067C516.676267 263.082667 582.638933 398.336 678.229333 506.845867zM595.4048 7.5776c-27.272533-4.5056-55.074133-7.441067-83.626667-7.441067-8.635733 0-17.032533 0.887467-25.565867 1.297067 0.0512 18.8416 0.955733 37.4784 2.304 56.0128C522.478933 37.973333 558.5408 21.9648 595.4048 7.5776zM586.308267 698.914133c1.109333 4.6592 1.604267 9.557333 1.860267 14.4896 25.4976 2.030933 51.217067 3.328 77.226667 3.328 57.736533 0 114.141867-5.3248 169.0624-15.0016-54.050133-32.341333-104.533333-69.9904-149.504-113.527467C655.479467 628.1216 622.404267 665.105067 586.308267 698.914133zM358.126933 256.085333c0 42.3936-34.4064 76.765867-76.817067 76.765867-5.768533 0-11.349333-0.750933-16.776533-1.9456-50.090667 72.055467-87.7056 153.2416-110.813867 240.349867 87.176533 54.033067 183.552 94.5664 286.225067 118.9376 10.837333-29.2352 38.7584-50.2272 71.816533-50.2272 17.152 0 32.802133 5.802667 45.585067 15.291733 33.4336-32.136533 64.3072-66.935467 91.4944-104.6528-101.6832-111.735467-173.397333-251.170133-200.977067-406.186667-34.184533 24.576-66.133333 52.036267-95.7952 81.749333C355.976533 235.349333 358.126933 245.486933 358.126933 256.085333zM204.4928 256.085333c0-42.3936 34.4064-76.782933 76.817067-76.782933 13.038933 0 25.105067 3.549867 35.874133 9.2672 37.461333-37.376 78.370133-71.355733 122.4704-100.9664-2.833067-26.6752-4.3008-53.725867-4.522667-81.1008C206.8992 40.840533 28.16 225.2288 2.986667 456.1408c33.211733 30.907733 68.573867 59.460267 105.8304 85.504 24.814933-85.9648 62.8224-166.2976 112.4864-238.165333C210.944 290.372267 204.4928 274.0736 204.4928 256.085333zM843.895467 122.845867c-1.194667 48.401067-6.997333 95.6416-16.2304 141.6192 25.173333 12.629333 42.5984 38.3488 42.5984 68.386133 0 42.410667-34.4064 76.782933-76.834133 76.782933-2.935467 0-5.768533-0.546133-8.635733-0.853333-19.3024 47.889067-42.769067 93.678933-70.434133 136.584533 57.0368 56.456533 122.965333 103.714133 195.328 140.117333 31.607467-8.174933 62.532267-17.988267 92.842667-29.184 13.550933-45.824 21.3504-94.071467 21.3504-144.298667C1023.8976 356.096 953.941333 216.712533 843.895467 122.845867zM665.3952 767.914667c-31.419733 0-62.481067-1.536-93.184-4.3008-14.08 18.0736-35.7888 29.883733-60.450133 29.883733-12.714667 0-24.507733-3.362133-35.054933-8.823467-87.517867 57.565867-186.504533 99.208533-293.085867 120.1152 88.8832 74.257067 203.264 119.04 328.1408 119.04 191.453867 0 358.0928-105.1648 445.952-260.693333-18.3296-7.168-35.959467-15.6672-53.6064-24.064C827.4432 757.418667 747.707733 767.914667 665.3952 767.914667zM439.8592 742.7584c-106.632533-23.9616-206.916267-64.5632-298.0864-118.8864-8.891733 46.6944-14.097067 94.737067-14.097067 144.042667 0 29.713067 2.048 58.9312 5.341867 87.7568 1.792 1.962667 3.601067 3.9936 5.393067 5.956267 110.4896-16.315733 212.906667-56.576 302.779733-114.602667C440.610133 745.659733 440.354133 744.157867 439.8592 742.7584z" fill="#1677FF" p-id="14193"></path></svg>